<svg xmlns="http://www.w3.org/2000/svg" viewBox="0 0 1769.29 567.3">
    <defs>
        <style>.cls-1{fill:#ffffff;}</style>
    </defs>
    <g id="Calque_2">
        <g id="Calque_1-2">
            <path class="cls-1"
                  d="M647.35,268.25a15,15,0,0,0,15-15V96.4h27.06c18.19,0,30.9,12.26,30.9,29.8,0,17.38-12.71,29.52-30.9,29.52h-7.37a14.07,14.07,0,0,0-13.92,14.19,13.77,13.77,0,0,0,13.92,13.92h8.2c35.13,0,60.64-24.24,60.64-57.63,0-33.56-25.51-57.91-60.64-57.91h-42.9A14.75,14.75,0,0,0,632.61,83V253.24A15.07,15.07,0,0,0,647.35,268.25Z"/>
            <path class="cls-1"
                  d="M865.39,65.56c-56.37,0-100.53,44.64-100.53,101.62S809,268.8,865.39,268.8s100.54-44.64,100.54-101.62S921.77,65.56,865.39,65.56Zm70.23,101.62c0,40.76-30.85,72.69-70.23,72.69-39.22,0-69.95-31.93-69.95-72.69,0-40.91,30.73-73,69.95-73C904.77,94.21,935.62,126.27,935.62,167.18Z"/>
            <path class="cls-1"
                  d="M1108.57,126.2c0-33.56-25.51-57.91-60.64-57.91H1005A14.75,14.75,0,0,0,990.29,83V253.24a14.88,14.88,0,1,0,29.76,0V96.4h27.06c18.18,0,30.89,12.26,30.89,29.8,0,17.38-12.71,29.52-30.89,29.52h-7.38a14.07,14.07,0,0,0-13.92,14.19,13.77,13.77,0,0,0,13.92,13.92h8.2C1083.06,183.83,1108.57,159.59,1108.57,126.2Z"/>
            <path class="cls-1"
                  d="M764.84,295.81a14.9,14.9,0,0,0-14.75,15V422c0,28.93-17.68,48.37-44,48.37S662.36,451,662.36,422V310.82a14.88,14.88,0,1,0-29.75,0V420.66c0,45.11,30.91,77.85,73.49,77.85s73.75-32.74,73.75-77.85V310.82A14.85,14.85,0,0,0,764.84,295.81Z"/>
            <path class="cls-1"
                  d="M946,295.81a14.85,14.85,0,0,0-15,15V441.09l-93.6-139.65a15.3,15.3,0,0,0-27.16,9.93V483A14.88,14.88,0,1,0,840,483V352.3l91,133.63c.58.78,1.14,1.63,1.72,2.5,2.65,4,6.29,9.53,13.33,9.53a15.08,15.08,0,0,0,14.74-15V310.82A14.89,14.89,0,0,0,946,295.81Z"/>
            <path class="cls-1"
                  d="M1008,295.81a14.89,14.89,0,0,0-14.74,15V483a14.88,14.88,0,1,0,29.75,0V310.82A14.85,14.85,0,0,0,1008,295.81Z"/>
            <path class="cls-1"
                  d="M1214.33,295.81a15.27,15.27,0,0,0-11,5.26L1083.17,444.46V310.82a14.88,14.88,0,1,0-29.76,0V483a15.08,15.08,0,0,0,14.74,15c4.6,0,8.65-2,12.07-6.08L1225,319.27a13.36,13.36,0,0,0,3.56-9.27A14.21,14.21,0,0,0,1214.33,295.81Z"/>
            <path class="cls-1"
                  d="M1335.66,326.11a14.07,14.07,0,0,0,13.91-14.2A13.77,13.77,0,0,0,1335.66,298h-77.6a14.75,14.75,0,0,0-14.74,14.74v168a14.89,14.89,0,0,0,14.74,15h77.6a14.06,14.06,0,0,0,13.91-14.18,13.77,13.77,0,0,0-13.91-13.93h-62.58V410.81h62.58a13.77,13.77,0,0,0,13.91-13.92,14.07,14.07,0,0,0-13.91-14.2h-62.58V326.11Z"/>
            <path class="cls-1"
                  d="M1450.52,408c25.39-3.64,43.06-24.92,43.06-52,0-33.56-25.5-57.92-60.64-57.92h-44.27a14.76,14.76,0,0,0-14.74,14.74V483a14.88,14.88,0,1,0,29.76,0V326.11h28.43c18.18,0,30.88,12.25,30.88,29.8,0,17.37-12.7,29.51-30.88,29.51h-9a13.65,13.65,0,0,0-13.65,13.92,17.74,17.74,0,0,0,4.32,11.12l68.82,81.93a14.32,14.32,0,0,0,11.55,5.57,14.76,14.76,0,0,0,14.74-14.74,13.76,13.76,0,0,0-3.5-9.74Z"/>
            <path class="cls-1"
                  d="M1588.51,384.19l-12.33-3.56c-14-3.92-30.12-10.77-30.12-29.1,0-13.65,10.44-28.15,29.79-28.15,20.28,0,28.48,13.64,30.11,21.59a13.82,13.82,0,0,0,14.15,12,14.31,14.31,0,0,0,14.47-14.47c0-28.26-30.36-47.25-58.73-47.25-34.5,0-59.54,23.09-59.54,54.91,0,41.45,35.27,52.08,46.92,55.59l13.64,3.83c14.29,4,30.69,11.25,30.69,31.28,0,14.07-12.23,29.25-32,29.25-20.49,0-30.72-13.95-32.61-23.44a14,14,0,0,0-14.11-11.26,14.32,14.32,0,0,0-14.47,14.47c0,22.95,26.17,48.62,61.19,48.62,34.62,0,61.73-24.72,61.73-56.27C1637.31,398.46,1601.87,388.09,1588.51,384.19Z"/>
            <path class="cls-1"
                  d="M1755.37,410.81a13.77,13.77,0,0,0,13.92-13.92,14.08,14.08,0,0,0-13.92-14.2h-62.58V326.11h62.58a14.08,14.08,0,0,0,13.92-14.2A13.77,13.77,0,0,0,1755.37,298h-77.59A14.75,14.75,0,0,0,1663,312.73v168a14.89,14.89,0,0,0,14.74,15h77.59a14.06,14.06,0,0,0,13.92-14.18,13.77,13.77,0,0,0-13.92-13.93h-62.58V410.81Z"/>
            <path class="cls-1"
                  d="M174.61,238.67c-1.31.09-2.59.12-3.9.12l-68.17,0,0-67a4.93,4.93,0,0,1-.06-1.16,68.24,68.24,0,0,1,68.2-68.29c1.16,0,2.31,0,3.51.09a68.21,68.21,0,0,1,.45,136.22Z"/>
            <path class="cls-1"
                  d="M238.85,395.5l0-67-68.17.06c-1.3,0-2.61,0-3.9.09a68.21,68.21,0,0,0,.46,136.23c1.19.05,2.34.09,3.5.09a68.25,68.25,0,0,0,68.2-68.29A5,5,0,0,0,238.85,395.5Zm225.91-58.37a68.71,68.71,0,0,0-64.67-64.21c-1.18-.06-2.34-.06-3.49-.06a68.24,68.24,0,0,0-68.21,68.26,5.29,5.29,0,0,0,.07,1.19l0,67,68.18,0c1.31,0,2.58,0,3.89-.13A68.21,68.21,0,0,0,464.76,337.13Zm0,0a68.71,68.71,0,0,0-64.67-64.21c-1.18-.06-2.34-.06-3.49-.06a68.24,68.24,0,0,0-68.21,68.26,5.29,5.29,0,0,0,.07,1.19l0,67,68.18,0c1.31,0,2.58,0,3.89-.13A68.21,68.21,0,0,0,464.76,337.13ZM238.85,395.5l0-67-68.17.06c-1.3,0-2.61,0-3.9.09a68.21,68.21,0,0,0,.46,136.23c1.19.05,2.34.09,3.5.09a68.25,68.25,0,0,0,68.2-68.29A5,5,0,0,0,238.85,395.5Zm0,0,0-67-68.17.06c-1.3,0-2.61,0-3.9.09a68.21,68.21,0,0,0,.46,136.23c1.19.05,2.34.09,3.5.09a68.25,68.25,0,0,0,68.2-68.29A5,5,0,0,0,238.85,395.5Zm225.91-58.37a68.71,68.71,0,0,0-64.67-64.21c-1.18-.06-2.34-.06-3.49-.06a68.24,68.24,0,0,0-68.21,68.26,5.29,5.29,0,0,0,.07,1.19l0,67,68.18,0c1.31,0,2.58,0,3.89-.13A68.21,68.21,0,0,0,464.76,337.13Zm0,0a68.71,68.71,0,0,0-64.67-64.21c-1.18-.06-2.34-.06-3.49-.06a68.24,68.24,0,0,0-68.21,68.26,5.29,5.29,0,0,0,.07,1.19l0,67,68.18,0c1.31,0,2.58,0,3.89-.13A68.21,68.21,0,0,0,464.76,337.13ZM238.85,395.5l0-67-68.17.06c-1.3,0-2.61,0-3.9.09a68.21,68.21,0,0,0,.46,136.23c1.19.05,2.34.09,3.5.09a68.25,68.25,0,0,0,68.2-68.29A5,5,0,0,0,238.85,395.5ZM517.13,0H50.18A50.18,50.18,0,0,0,0,50.18v467A50.18,50.18,0,0,0,50.18,567.3h467a50.18,50.18,0,0,0,50.18-50.17V50.18A50.18,50.18,0,0,0,517.13,0ZM273,396.66A102.26,102.26,0,0,1,170.75,499c-2.51,0-5-.08-7.43-.27A102.31,102.31,0,0,1,68.66,389.28c3.68-52.24,51.69-94.84,104.06-94.86l100.11-.07.06,100.6A9.65,9.65,0,0,1,273,396.66ZM272.71,178C269,230.3,221,272.89,168.64,272.92l-66.1,0v22.47A109.69,109.69,0,0,0,68.42,328.7v-87h.09l0-69.29a10.9,10.9,0,0,1,0-1.71A102.26,102.26,0,0,1,170.62,68.35c2.49,0,5,.09,7.43.27A102.3,102.3,0,0,1,272.71,178ZM498.65,348.51C495,400.76,447,443.36,394.59,443.39l-65.86,0V499H294.57V443.42h-.09l-.06-100.57a10.7,10.7,0,0,1-.06-1.7A102.27,102.27,0,0,1,396.57,238.82c2.49,0,5,.09,7.43.27A102.3,102.3,0,0,1,498.65,348.51Zm-98.56-75.59c-1.18-.06-2.34-.06-3.49-.06a68.24,68.24,0,0,0-68.21,68.26,5.29,5.29,0,0,0,.07,1.19l0,67,68.18,0c1.31,0,2.58,0,3.89-.13a68.2,68.2,0,0,0-.46-136.21ZM238.82,328.48l-68.17.06c-1.3,0-2.61,0-3.9.09a68.21,68.21,0,0,0,.46,136.23c1.19.05,2.34.09,3.5.09a68.25,68.25,0,0,0,68.2-68.29,5,5,0,0,0-.06-1.16Zm0,67,0-67-68.17.06c-1.3,0-2.61,0-3.9.09a68.21,68.21,0,0,0,.46,136.23c1.19.05,2.34.09,3.5.09a68.25,68.25,0,0,0,68.2-68.29A5,5,0,0,0,238.85,395.5Zm225.91-58.37a68.71,68.71,0,0,0-64.67-64.21c-1.18-.06-2.34-.06-3.49-.06a68.24,68.24,0,0,0-68.21,68.26,5.29,5.29,0,0,0,.07,1.19l0,67,68.18,0c1.31,0,2.58,0,3.89-.13A68.21,68.21,0,0,0,464.76,337.13Zm0,0a68.71,68.71,0,0,0-64.67-64.21c-1.18-.06-2.34-.06-3.49-.06a68.24,68.24,0,0,0-68.21,68.26,5.29,5.29,0,0,0,.07,1.19l0,67,68.18,0c1.31,0,2.58,0,3.89-.13A68.21,68.21,0,0,0,464.76,337.13ZM238.85,395.5l0-67-68.17.06c-1.3,0-2.61,0-3.9.09a68.21,68.21,0,0,0,.46,136.23c1.19.05,2.34.09,3.5.09a68.25,68.25,0,0,0,68.2-68.29A5,5,0,0,0,238.85,395.5Zm0,0,0-67-68.17.06c-1.3,0-2.61,0-3.9.09a68.21,68.21,0,0,0,.46,136.23c1.19.05,2.34.09,3.5.09a68.25,68.25,0,0,0,68.2-68.29A5,5,0,0,0,238.85,395.5Zm0,0,0-67-68.17.06c-1.3,0-2.61,0-3.9.09a68.21,68.21,0,0,0,.46,136.23c1.19.05,2.34.09,3.5.09a68.25,68.25,0,0,0,68.2-68.29A5,5,0,0,0,238.85,395.5Z"/>
        </g>
    </g>
</svg>
