<?xml version="1.0" encoding="utf-8"?>
<!-- Generator: Adobe Illustrator 25.2.3, SVG Export Plug-In . SVG Version: 6.00 Build 0)  -->
<svg version="1.1" id="Calque_1" xmlns="http://www.w3.org/2000/svg" xmlns:xlink="http://www.w3.org/1999/xlink" x="0px" y="0px"
	 viewBox="0 0 50 50" style="enable-background:new 0 0 50 50;" xml:space="preserve">
<style type="text/css">
	.st0{fill:#FFFFFF;}
</style>
<path id="noun_Search_2102816_2_" class="st0" d="M19.18,35.67c3.73,0,7.35-1.26,10.27-3.59l14.71,14.71c0.73,0.73,1.9,0.73,2.63,0
	c0.73-0.73,0.73-1.9,0-2.63L32.08,29.46c5.68-7.13,4.51-17.51-2.61-23.19S11.96,1.75,6.27,8.88S1.76,26.39,8.89,32.07
	C11.81,34.4,15.44,35.67,19.18,35.67L19.18,35.67z M10.14,10.15c4.99-4.99,13.08-4.99,18.07,0s4.99,13.08,0,18.07
	s-13.08,4.99-18.07,0c0,0,0,0,0,0c-4.99-4.92-5.04-12.96-0.12-17.95C10.06,10.23,10.1,10.19,10.14,10.15z"/>
</svg>
